<?xml version="1.0" encoding="utf-8"?>
<!-- Generator: Adobe Illustrator 18.0.0, SVG Export Plug-In . SVG Version: 6.00 Build 0)  -->
<!DOCTYPE svg PUBLIC "-//W3C//DTD SVG 1.1//EN" "http://www.w3.org/Graphics/SVG/1.1/DTD/svg11.dtd">
<svg version="1.1" id="Layer_1" xmlns="http://www.w3.org/2000/svg" xmlns:xlink="http://www.w3.org/1999/xlink" x="0px" y="0px"
	 width="800px" height="600px" viewBox="0 0 800 600" enable-background="new 0 0 800 600" xml:space="preserve">
<g>
	
		<radialGradient id="SVGID_1_" cx="987" cy="-87" r="712.8001" gradientTransform="matrix(-1 0 0 1 800.0001 0)" gradientUnits="userSpaceOnUse">
		<stop  offset="0" style="stop-color:#EE2A7B"/>
		<stop  offset="0.129" style="stop-color:#D9287A"/>
		<stop  offset="0.3861" style="stop-color:#B12478"/>
		<stop  offset="0.7436" style="stop-color:#792075"/>
		<stop  offset="1" style="stop-color:#511C74"/>
	</radialGradient>
	<rect fill="url(#SVGID_1_)" width="800" height="600"/>
	<g>
		<defs>
			<rect id="SVGID_119_" width="800" height="600"/>
		</defs>
		<clipPath id="SVGID_2_">
			<use xlink:href="#SVGID_119_"  overflow="visible"/>
		</clipPath>
		<g clip-path="url(#SVGID_2_)">
			<path opacity="0.2" fill="none" stroke="#EE2A7B" stroke-miterlimit="10" d="M206,11.9c-2.2-16.2-34.5-2.9-45.2-44.5
				c-10.6-41.6-55-17.1-35.3,17.9c22.5,40-25.5,96,11.3,103.1c25.4,4.9,28.1-34.6,39.4-45.4C187.4,32.3,208.1,27.2,206,11.9z"/>
			<path opacity="0.2107" fill="none" stroke="#EE2E7B" stroke-width="1.0179" stroke-miterlimit="10" d="M188.7,49.2
				c11.1-13.6,27.2-18.4,23.9-34.5c-3.5-17.1-35.9-6.2-48-46.7C152.4-72.4,110.3-44.8,125.4-9c17.4,40.9-26.5,101.4,13.4,105
				C167.9,98.6,176.9,63.7,188.7,49.2z"/>
			<path opacity="0.2214" fill="none" stroke="#EE327A" stroke-width="1.0357" stroke-miterlimit="10" d="M202.1,55.4
				c11-16.3,22.6-20.9,18.1-37.8c-4.8-17.9-37.2-9.5-50.9-48.9c-13.7-39.4-53.6-8.7-43,27.9c12.1,41.8-27.3,109.6,15.4,106.8
				C174.5,101.3,189.8,73.6,202.1,55.4z"/>
			<path opacity="0.2321" fill="none" stroke="#EE3579" stroke-width="1.0536" stroke-miterlimit="10" d="M215.4,61.6
				c10.9-19,17.9-23.4,12.2-41.2c-6-18.7-38.6-12.8-53.8-51.1c-15.2-38.3-53-4.6-46.8,33c6.9,42.6-28.2,111.5,17.5,108.7
				C181.2,108.8,202.7,83.7,215.4,61.6z"/>
			<path opacity="0.2429" fill="none" stroke="#EE3878" stroke-width="1.0714" stroke-miterlimit="10" d="M228.4,67.8
				c10.9-21.7,13.3-25.8,6.3-44.6c-7.3-19.6-40-16.2-56.7-53.3c-16.7-37.2-52.3-0.6-50.7,38c1.8,43.3-29,116.3,19.6,110.6
				C187.6,113.7,215.3,93.7,228.4,67.8z"/>
			<path opacity="0.2536" fill="none" stroke="#EE3B78" stroke-width="1.0893" stroke-miterlimit="10" d="M240.9,73.9
				c11-24.3,8.7-28.3,0.5-47.9C232.8,5.6,200,6.5,181.8-29.5c-18.2-36.1-51.5,3.4-54.5,43C124,57.6,97.5,134.6,149,126
				C193.5,118.6,227.4,103.8,240.9,73.9z"/>
			<path opacity="0.2643" fill="none" stroke="#EE3E77" stroke-width="1.1071" stroke-miterlimit="10" d="M253,80.1
				c11-27,4-30.8-5.4-51.3c-9.8-21.3-42.7-22.8-62.4-57.7c-19.8-35-50.7,7.3-58.4,48.1c-8.4,44.6-30.6,125.7,23.7,114.3
				C198.9,123.4,239.1,113.8,253,80.1z"/>
			<path opacity="0.275" fill="none" stroke="#EF4176" stroke-width="1.125" stroke-miterlimit="10" d="M264.7,86.2
				c11.1-29.6-0.6-33.3-11.2-54.6c-11-22.1-44.1-26.2-65.3-59.9C166.9-62.2,138.4-17,126,24.8c-13.4,45.2-31.4,130.3,25.8,116.2
				C204.1,128.2,250.6,123.9,264.7,86.2z"/>
			<path opacity="0.2857" fill="none" stroke="#EF4375" stroke-width="1.1429" stroke-miterlimit="10" d="M276.3,92.4
				c11.2-32.2-5.2-35.8-17.1-58C247,11.5,213.8,4.9,191.1-27.6c-22.9-32.8-48.9,15.1-66.1,58.1c-18.3,45.9-32.2,134.9,27.9,118.1
				C209,132.9,261.9,134,276.3,92.4z"/>
			<path opacity="0.2964" fill="none" stroke="#EF4674" stroke-width="1.1607" stroke-miterlimit="10" d="M287.9,98.6
				c11.2-34.8-9.8-38.3-23-61.4C251.4,13.5,218,4.4,193.9-27c-24.4-31.7-48,19.1-69.9,63.2c-23.2,46.5-33,139.4,30,120
				C213.9,137.6,273.2,144.2,287.9,98.6z"/>
			<path opacity="0.3071" fill="none" stroke="#EF4873" stroke-width="1.1786" stroke-miterlimit="10" d="M299.3,104.8
				c11.3-37.5-14.5-40.8-28.8-64.7c-14.7-24.6-48.3-36.2-73.9-66.4c-26-30.6-47,23-73.8,68.2c-28,47.2-33.8,143.9,32,121.8
				C218.7,142.4,284.4,154.3,299.3,104.8z"/>
			<path opacity="0.3179" fill="none" stroke="#EF4A72" stroke-width="1.1964" stroke-miterlimit="10" d="M310.8,111.1
				C322.2,71,291.7,67.8,276.1,43c-16-25.5-49.7-39.6-76.8-68.6c-27.5-29.5-45.9,27-77.6,73.2C88.9,95.5,87,196,155.8,171.3
				C223.4,147.1,295.5,164.5,310.8,111.1z"/>
			<path opacity="0.3286" fill="none" stroke="#EF4D71" stroke-width="1.2143" stroke-miterlimit="10" d="M322.2,117.3
				c11.6-42.7-23.7-45.7-40.5-71.4C264.4,19.6,230.6,3,202-24.9c-29.1-28.4-44.9,31.1-81.5,78.3C82.9,101.9,85,206.1,156.7,178.9
				C228.1,151.8,306.7,174.7,322.2,117.3z"/>
			<path opacity="0.3393" fill="none" stroke="#F04F70" stroke-width="1.2321" stroke-miterlimit="10" d="M333.6,123.6
				c11.7-45.3-28.3-48.2-46.4-74.8c-18.5-27.1-52.5-46.2-82.5-73c-30.7-27.4-43.9,35.1-85.3,83.3c-42.4,49.3-36.4,157.3,38.3,127.4
				C232.8,156.5,317.8,184.9,333.6,123.6z"/>
			<path opacity="0.35" fill="none" stroke="#F0516F" stroke-width="1.25" stroke-miterlimit="10" d="M345,129.9
				c11.8-48-33-50.7-52.3-78.2c-19.7-28-53.9-49.6-85.4-75.2c-32.2-26.3-42.8,39.2-89.2,88.3C70.9,115,80.8,226.6,158.5,194.2
				C237.4,161.2,329,195.1,345,129.9z"/>
			<path opacity="0.3607" fill="none" stroke="#F0536E" stroke-width="1.2679" stroke-miterlimit="10" d="M356.3,136.2
				c11.9-50.6-37.6-53.2-58.1-81.5c-20.9-28.8-55.3-52.9-88.3-77.4c-33.8-25.2-41.8,43.2-93,93.4c-52,50.9-38.2,166.1,42.4,131.2
				C242.1,166,340.1,205.3,356.3,136.2z"/>
			<path opacity="0.3714" fill="none" stroke="#F0556D" stroke-width="1.2857" stroke-miterlimit="10" d="M367.7,142.5
				c12-53.2-42.2-55.7-64-84.9C281.5,28,247,1.4,212.6-22c-35.4-24.1-40.7,47.3-96.9,98.4C58.9,128.1,76.6,247,160.2,209.5
				C246.7,170.7,351.2,215.6,367.7,142.5z"/>
			<path opacity="0.3821" fill="none" stroke="#F0586C" stroke-width="1.3036" stroke-miterlimit="10" d="M379.1,148.9
				c12.1-55.9-46.8-58.2-69.8-88.2c-23.4-30.5-58.2-59.6-94-81.8c-37-23-39.7,51.4-100.7,103.4c-61.6,52.5-40,175,46.6,134.9
				C251.3,175.4,362.4,225.8,379.1,148.9z"/>
			<path opacity="0.3929" fill="none" stroke="#F05A6B" stroke-width="1.3214" stroke-miterlimit="10" d="M390.4,155.2
				c12.2-58.5-51.4-60.7-75.7-91.6c-24.7-31.4-59.6-62.9-96.9-84c-38.6-21.9-38.6,55.6-104.6,108.5
				c-66.4,53.3-40.9,179.4,48.6,136.8C255.9,180.2,373.5,236.1,390.4,155.2z"/>
			<path opacity="0.4036" fill="none" stroke="#F15B6A" stroke-width="1.3393" stroke-miterlimit="10" d="M401.8,161.6
				c12.4-61.1-56-63.2-81.6-94.9c-25.9-32.2-61-66.2-99.8-86.2c-40.2-20.7-37.6,59.7-108.4,113.5c-71.2,54.1-41.9,183.8,50.7,138.7
				C260.5,184.9,384.6,246.4,401.8,161.6z"/>
			<path opacity="0.4143" fill="none" stroke="#F15D69" stroke-width="1.3571" stroke-miterlimit="10" d="M413.2,168
				c12.5-63.8-60.7-65.7-87.4-98.3c-27.1-33.1-62.5-69.5-102.6-88.4c-41.8-19.6-36.6,63.8-112.2,118.5c-76,55-42.8,188.2,52.8,140.5
				C265.1,189.7,395.8,256.7,413.2,168z"/>
			<path opacity="0.425" fill="none" stroke="#F15F68" stroke-width="1.375" stroke-miterlimit="10" d="M424.5,174.4
				c12.6-66.4-65.3-68.2-93.3-101.7c-28.4-33.9-63.9-72.8-105.5-90.6C182.4-36.4,190.2,50,109.6,105.7
				c-80.8,55.8-43.7,192.6,54.9,142.4C269.7,194.5,406.9,267,424.5,174.4z"/>
			<path opacity="0.4357" fill="none" stroke="#F16166" stroke-width="1.3929" stroke-miterlimit="10" d="M435.9,180.8
				c12.7-69-69.9-70.7-99.1-105C307.2,41,271.4-0.4,228.4-17C183.4-34.4,193.9,55,108.4,111.6c-85.6,56.7-44.6,197,56.9,144.3
				C274.3,199.3,418.1,277.3,435.9,180.8z"/>
			<path opacity="0.4464" fill="none" stroke="#F16365" stroke-width="1.4107" stroke-miterlimit="10" d="M447.3,187.2
				c12.9-71.7-74.5-73.2-105-108.4c-30.8-35.6-66.8-79.5-111.3-95C184.5-32.4,197.5,60,107.2,117.5c-90.5,57.5-45.6,201.4,59,146.2
				C278.8,204.1,429.2,287.7,447.3,187.2z"/>
			<path opacity="0.4571" fill="none" stroke="#F16564" stroke-width="1.4286" stroke-miterlimit="10" d="M458.6,193.6
				c13-74.3-79.1-75.7-110.9-111.7c-32.1-36.5-68.2-82.8-114.1-97.2C185.5-30.4,201.2,65.1,106,123.4
				c-95.3,58.4-46.5,205.8,61.1,148C283.4,208.9,440.3,298,458.6,193.6z"/>
			<path opacity="0.4679" fill="none" stroke="#F26663" stroke-width="1.4464" stroke-miterlimit="10" d="M470,200.1
				c13.1-76.9-83.7-78.2-116.7-115.1c-33.3-37.3-69.7-86.1-117-99.4c-49.7-14-31.4,84.5-131.5,143.7
				C4.7,188.5,57.3,339.5,167.9,279.2C288,213.7,451.5,308.4,470,200.1z"/>
			<path opacity="0.4786" fill="none" stroke="#F26862" stroke-width="1.4643" stroke-miterlimit="10" d="M481.3,206.5
				c13.3-79.6-88.4-80.7-122.6-118.5C324.2,49.9,287.7-1.3,238.9-13.5c-51.3-12.8-30.4,88.7-135.3,148.7
				C-1.4,195.3,55.1,349.9,168.8,287C292.5,218.5,462.6,318.8,481.3,206.5z"/>
			<path opacity="0.4893" fill="none" stroke="#F26A60" stroke-width="1.4821" stroke-miterlimit="10" d="M492.7,213
				c13.4-82.2-93-83.1-128.4-121.8c-35.8-39-72.5-92.6-122.7-103.8c-52.9-11.7-29.4,92.8-139.2,153.8
				C-7.4,202.1,53,360.2,169.6,294.8C297.1,223.3,473.8,329.1,492.7,213z"/>
			<path opacity="0.5" fill="none" stroke="#F26B5F" stroke-width="1.5" stroke-miterlimit="10" d="M504.1,219.5
				c13.5-84.8-97.6-85.6-134.3-125.2c-37-39.8-73.9-95.9-125.6-106c-54.5-10.6-28.4,97-143,158.8c-114.6,61.8-50.3,223.5,69.4,155.5
				C301.7,228.2,484.9,339.5,504.1,219.5z"/>
			<path opacity="0.5107" fill="none" stroke="#F26D5E" stroke-width="1.5179" stroke-miterlimit="10" d="M515.4,225.9
				c13.7-87.5-102.2-88.1-140.2-128.5C337,56.7,299.9-1.8,246.8-10.8c-56.1-9.4-27.4,101.1-146.9,163.8
				c-119.4,62.6-51.3,227.9,71.4,157.4C306.2,233,496.1,349.9,515.4,225.9z"/>
			<path opacity="0.5214" fill="none" stroke="#F36F5C" stroke-width="1.5357" stroke-miterlimit="10" d="M526.8,232.4
				c13.8-90.1-106.8-90.6-146-131.9C341.3,59,304-2,249.4-9.8C191.7-18.1,223,95.5,98.7,159c-124.3,63.5-52.2,232.3,73.5,159.3
				C310.8,237.8,507.2,360.3,526.8,232.4z"/>
			<path opacity="0.5321" fill="none" stroke="#F3705B" stroke-width="1.5536" stroke-miterlimit="10" d="M538.2,238.9
				c13.9-92.8-111.4-93.1-151.9-135.3C345.6,61.3,308-2.2,252-8.9C192.8-16,226.7,100.6,97.5,165C-31.6,229.4,44.3,401.7,173,326.1
				C315.3,242.7,518.4,370.8,538.2,238.9z"/>
			<path opacity="0.5429" fill="none" stroke="#F37259" stroke-width="1.5714" stroke-miterlimit="10" d="M549.5,245.4
				c14-95.4-116.1-95.6-157.8-138.6C349.8,63.6,312.1-2.3,254.6-7.9c-60.9-6-24.3,113.6-158.4,178.9C-37.7,236.2,42.1,412,173.9,334
				C319.9,247.6,529.5,381.2,549.5,245.4z"/>
			<path opacity="0.5536" fill="none" stroke="#F37457" stroke-width="1.5893" stroke-miterlimit="10" d="M560.9,251.9
				c14.2-98-120.7-98.1-163.6-142C354.1,65.9,316.2-2.4,257.3-7C194.8-11.8,233.9,110.8,95,177c-138.8,66.1-55.1,245.5,79.7,164.9
				C324.4,252.4,540.7,391.6,560.9,251.9z"/>
			<path opacity="0.5643" fill="none" stroke="#F37556" stroke-width="1.6071" stroke-miterlimit="10" d="M572.2,258.5
				C586.6,157.8,447,157.7,402.8,113.1C358.4,68.1,320.3-2.5,259.9-6c-64-3.7-22.3,121.9-166.1,189c-143.6,67-56.1,249.9,81.8,166.8
				C329,257.3,551.8,402.1,572.2,258.5z"/>
			<path opacity="0.575" fill="none" stroke="#F37754" stroke-width="1.625" stroke-miterlimit="10" d="M583.6,265
				C598,161.7,453.8,161.8,408.3,116.3C362.7,70.4,324.3-2.7,262.5-5c-65.6-2.5-21.3,126.1-170,194c-148.5,67.8-57,254.2,83.9,168.6
				C333.5,262.2,563,412.5,583.6,265z"/>
			<path opacity="0.5857" fill="none" stroke="#F47852" stroke-width="1.6429" stroke-miterlimit="10" d="M595,271.5
				c14.6-105.9-134.4-105.7-181.2-152.1C367,72.7,328.4-2.8,265.2-4.1C198-5.4,244.8,126.2,91.4,195c-153.3,68.7-58,258.6,86,170.5
				C338,267.1,574.1,423,595,271.5z"/>
			<path opacity="0.5964" fill="none" stroke="#F47950" stroke-width="1.6607" stroke-miterlimit="10" d="M606.3,278.1
				C621,169.5,467.3,169.9,419.3,122.6C371.2,75.1,332.5-2.9,267.8-3.1C199-3.3,248.5,131.4,90.1,201c-158.1,69.6-59,263,88,172.4
				C342.6,272,585.3,433.4,606.3,278.1z"/>
			<path opacity="0.6071" fill="none" stroke="#F47B4E" stroke-width="1.6786" stroke-miterlimit="10" d="M617.7,284.6
				C632.5,173.4,474,173.9,424.8,125.8C375.5,77.4,336.6-3,270.4-2.1C200.1-1.2,252.1,136.5,88.9,207
				C-74.1,277.5,29,474.5,179,381.3C347.1,276.9,596.4,443.9,617.7,284.6z"/>
			<path opacity="0.6179" fill="none" stroke="#F47C4C" stroke-width="1.6964" stroke-miterlimit="10" d="M629.1,291.2
				C644,177.3,480.8,178,430.3,129C379.8,79.8,340.7-3,273-1.1C201.1,1,255.7,141.7,87.7,213.1c-167.8,71.3-60.9,271.8,92.2,176.1
				C351.7,281.8,607.6,454.4,629.1,291.2z"/>
			<path opacity="0.6286" fill="none" stroke="#F47E4A" stroke-width="1.7143" stroke-miterlimit="10" d="M640.4,297.7
				c15.1-116.5-152.9-115.7-204.6-165.5C384,82.1,344.8-3.1,275.7-0.1c-73.5,3.2-16.3,146.9-189.2,219.2
				c-172.7,72.2-61.9,276.2,94.3,178C356.2,286.7,618.7,464.8,640.4,297.7z"/>
			<path opacity="0.6393" fill="none" stroke="#F57F47" stroke-width="1.7321" stroke-miterlimit="10" d="M651.8,304.3
				C667,185.2,494.2,186.1,441.3,135.4c-53-51-92.4-138.6-163-134.5C203.2,5.3,263,152,85.3,225.2C-92.3,298.2,22.4,505.8,181.6,405
				C360.7,291.6,629.9,475.3,651.8,304.3z"/>
			<path opacity="0.65" fill="none" stroke="#F58145" stroke-width="1.75" stroke-miterlimit="10" d="M663.1,310.9
				C678.5,189.1,501,190.2,446.8,138.7C392.5,86.9,352.9-3.2,280.9,2C204.3,7.5,266.6,157.2,84,231.2
				c-182.4,73.9-63.8,285,98.4,181.7C365.3,296.5,641.1,485.8,663.1,310.9z"/>
			<path opacity="0.6607" fill="none" stroke="#F58242" stroke-width="1.7679" stroke-miterlimit="10" d="M674.5,317.5
				C690,193.1,507.7,194.3,452.3,141.9C396.8,89.2,357-3.3,283.6,3c-78.2,6.7-13.3,159.4-200.7,234.3
				c-187.2,74.8-64.8,289.4,100.5,183.6C369.8,301.5,652.2,496.3,674.5,317.5z"/>
			<path opacity="0.6714" fill="none" stroke="#F58340" stroke-width="1.7857" stroke-miterlimit="10" d="M685.9,324.1
				c15.6-127-171.4-125.7-228.1-178.9C401.1,91.6,361.1-3.3,286.2,4c-79.8,7.9-12.3,163.6-204.6,239.3
				C-110.5,319,15.9,537.2,184.2,428.8C374.3,306.4,663.4,506.8,685.9,324.1z"/>
			<path opacity="0.6821" fill="none" stroke="#F5853D" stroke-width="1.8036" stroke-miterlimit="10" d="M697.2,330.6
				C713,201,521.2,202.5,463.3,148.4C405.3,94,365.2-3.4,288.8,5.1c-81.4,9-11.3,167.8-208.4,244.3C-116.5,326,13.7,547.6,185,436.8
				C378.9,311.3,674.5,517.3,697.2,330.6z"/>
			<path opacity="0.6929" fill="none" stroke="#F6863B" stroke-width="1.8214" stroke-miterlimit="10" d="M708.6,337.2
				C724.5,204.9,528,206.6,468.8,151.6C409.6,96.4,369.3-3.4,291.5,6.1C208.5,16.3,281.1,178,79.2,255.5
				c-201.8,77.4-67.7,302.6,106.7,189.2C383.4,316.3,685.7,527.8,708.6,337.2z"/>
			<path opacity="0.7036" fill="none" stroke="#F68738" stroke-width="1.8393" stroke-miterlimit="10" d="M720,343.8
				c16.3-134.9-185.3-133.1-245.7-189C413.9,98.8,373.4-3.5,294.1,7.2c-84.5,11.3-9.3,176.1-216.1,254.4
				c-206.6,78.3-68.7,307,108.8,191.1C387.9,321.2,697.2,538.4,720,343.8z"/>
			<path opacity="0.7143" fill="none" stroke="#F68936" stroke-width="1.8571" stroke-miterlimit="10" d="M731.3,350.4
				c16.4-137.6-189.9-135.6-251.5-192.4C418.1,101.2,377.4-3.5,296.7,8.2c-86.1,12.5-8.2,180.6-220,259.4
				c-211.4,79.5-69.6,311.4,110.9,193C392.4,326.2,708.3,548.9,731.3,350.4z"/>
			<path opacity="0.725" fill="none" stroke="#F68A33" stroke-width="1.875" stroke-miterlimit="10" d="M742.7,357
				c16.5-140.2-194.5-138.1-257.4-195.7C422.4,103.6,381.6-3.4,299.3,9.2C211.7,23,292.1,194,75.5,273.7
				c-216.2,80.4-70.6,315.8,112.9,194.8C397,331.1,719.4,559.4,742.7,357z"/>
			<path opacity="0.7357" fill="none" stroke="#F68C30" stroke-width="1.8929" stroke-miterlimit="10" d="M754,363.6
				C770.6,220.8,554.9,223,490.8,164.6C426.6,106,385.6-3.4,301.9,10.3c-89.2,14.9-6.3,188.9-227.7,269.5
				C-146.8,361,2.7,600,189.3,476.5C401.5,336.1,730.5,569.9,754,363.6z"/>
			<path opacity="0.7464" fill="none" stroke="#F78D2D" stroke-width="1.9107" stroke-miterlimit="10" d="M765.4,370.3
				c16.7-145.5-203.7-143.1-269.1-202.5C430.9,108.4,389.7-3.5,304.6,11.4c-90.8,16.1-5.3,193-231.5,274.5
				c-226,82-72.6,324.6,117.1,198.6C406,341,741.6,580.5,765.4,370.3z"/>
			<path opacity="0.7571" fill="none" stroke="#F78E2A" stroke-width="1.9286" stroke-miterlimit="10" d="M776.8,376.9
				c16.8-148.1-208.3-145.6-275-205.8c-66.6-60.3-108-174.6-194.6-158.6c-92.3,17.2-4.3,197.1-235.4,279.6
				C-159,374.9-1.9,620.7,191,492.5C410.3,345.7,752.8,591.1,776.8,376.9z"/>
			<path opacity="0.7679" fill="none" stroke="#F79027" stroke-width="1.9464" stroke-miterlimit="10" d="M788.2,383.5
				c16.9-150.8-213-148.1-280.8-209.2C439.5,113.3,398-3.5,309.9,13.5C216,31.9,306.5,214.8,70.7,298.1
				C-165.1,381.8-4,631.3,191.9,500.5C414.9,350.7,763.9,601.6,788.2,383.5z"/>
			<path opacity="0.7786" fill="none" stroke="#F79123" stroke-width="1.9643" stroke-miterlimit="10" d="M799.5,390.2
				c17-153.4-217.6-150.6-286.7-212.5c-69.1-62-110.8-181.2-200.3-163C217,34.1,310.1,219.9,69.4,304.2
				c-240.6,84.5-75.6,337.6,123.3,204.2C419.5,355.8,775,612.1,799.5,390.2z"/>
			<path opacity="0.7893" fill="none" stroke="#F79220" stroke-width="1.9821" stroke-miterlimit="10" d="M810.9,396.8
				C828,240.7,588.7,243.7,518.3,180.9C448,118.1,406.1-3.6,315.1,15.6c-97,20.6-1.4,209.5-246.9,294.7
				c-245.5,85.3-76.5,342.1,125.4,206.1C424.1,360.8,786.1,622.6,810.9,396.8z"/>
			<path opacity="0.8" fill="none" stroke="#F7941E" stroke-width="2" stroke-miterlimit="10" d="M317.8,16.7
				C219.1,38.4,317.3,230.3,67,316.4S-10.5,663,194.5,524.3c234.2-158.5,602.8,108.8,627.8-121c17.3-158.7-226.8-155.6-298.4-219.3
				S410.2-3.7,317.8,16.7z"/>
			<path opacity="0.8036" fill="none" stroke="#F8951D" stroke-width="1.9821" stroke-miterlimit="10" d="M822.5,407.7
				C839.8,251.6,600.8,254,529.9,191.3S417.5,6.9,326.6,27.2c-96.9,21.4-0.5,210-246.3,294.7c-245.9,84.7-76.1,340.7,125.2,204.6
				C435.6,371,797.7,633.6,822.5,407.7z"/>
			<path opacity="0.8071" fill="none" stroke="#F8961D" stroke-width="1.9643" stroke-miterlimit="10" d="M822.7,412.1
				C840.2,258.4,606.2,260.2,536,198.4S424.8,17.5,335.5,37.6C240.3,58.8,334.9,244,93.5,327.2c-241.4,83.3-74.7,334.8,123,201.3
				C442.5,376.1,798.2,634,822.7,412.1z"/>
			<path opacity="0.8107" fill="none" stroke="#F8981D" stroke-width="1.9464" stroke-miterlimit="10" d="M823,416.5
				c17.2-151.2-211.4-150-280.9-210.9S432.2,28.3,344.3,48.1c-93.4,21-0.6,202.8-237.5,284.6c-237,81.9-73.3,328.9,120.8,198
				C449.5,381.2,798.2,634.3,823,416.5z"/>
			<path opacity="0.8143" fill="none" stroke="#F8991D" stroke-width="1.9286" stroke-miterlimit="10" d="M823.2,420.8
				c17.2-148.7-206.3-148.2-275.1-208.1S439.5,38.9,353.2,58.5c-91.7,20.8-0.6,199.1-233.1,279.5C-112.4,418.6,48.2,661,238.6,532.7
				C456.4,386.3,798.5,634.7,823.2,420.8z"/>
			<path opacity="0.8179" fill="none" stroke="#F89A1D" stroke-width="1.9107" stroke-miterlimit="10" d="M823.5,425.2
				C840.6,279,622.3,278.9,554.2,219.9S446.8,49.6,362.1,69c-89.9,20.6-0.7,195.5-228.7,274.5c-228,79.1-70.5,317,116.3,191.3
				C463.3,391.4,798.8,635.1,823.5,425.2z"/>
			<path opacity="0.8214" fill="none" stroke="#F99B1D" stroke-width="1.8929" stroke-miterlimit="10" d="M823.7,429.5
				c17.2-143.7-196-144.4-263.5-202.5S454.1,60.2,370.9,79.5c-88.2,20.4-0.7,191.9-224.3,269.4C-77,426.6,77.5,660,260.7,536.9
				C470.2,396.5,799.1,635.5,823.7,429.5z"/>
			<path opacity="0.825" fill="none" stroke="#F99D1D" stroke-width="1.875" stroke-miterlimit="10" d="M823.9,433.9
				C841.1,292.7,633,291.3,566.3,234.2S461.4,70.9,379.8,89.9C293.3,110,379,278.2,159.9,354.3C-59.2,430.7,92.1,659.5,271.7,539
				C477.1,401.6,799.4,635.9,823.9,433.9z"/>
			<path opacity="0.8286" fill="none" stroke="#F99E1D" stroke-width="1.8571" stroke-miterlimit="10" d="M824.2,438.3
				c17.1-138.7-185.8-140.7-251.8-196.9s-103.6-159.8-183.7-141c-84.7,19.9-0.8,184.7-215.5,259.4c-214.7,75-66.4,299.3,109.6,181.3
				C484.1,406.7,799.7,636.3,824.2,438.3z"/>
			<path opacity="0.8321" fill="none" stroke="#F99F1D" stroke-width="1.8393" stroke-miterlimit="10" d="M824.4,442.6
				c17.1-136.2-180.6-138.9-246-194.1S476.1,92.2,397.5,110.8c-83,19.7-0.9,181.1-211.1,254.3c-210.2,73.6-65,293.4,107.4,178
				C491,411.8,800,636.7,824.4,442.6z"/>
			<path opacity="0.8357" fill="none" stroke="#F9A11D" stroke-width="1.8214" stroke-miterlimit="10" d="M824.7,447
				c17.1-133.7-175.5-137-240.2-191.3S483.4,102.9,406.4,121.3c-81.2,19.4-0.9,177.5-206.7,249.3
				c-205.8,72.2-63.6,287.5,105.1,174.7C497.9,416.9,800.4,637.1,824.7,447z"/>
			<path opacity="0.8393" fill="none" stroke="#FAA21D" stroke-width="1.8036" stroke-miterlimit="10" d="M824.9,451.4
				C842,320.1,654.5,316.2,590.5,262.8s-99.8-149.3-175.3-131.1C335.7,151,414.2,305.6,213,376c-201.3,70.8-62.2,281.6,102.9,171.4
				C504.8,422,800.7,637.5,824.9,451.4z"/>
			<path opacity="0.8429" fill="none" stroke="#FAA31D" stroke-width="1.7857" stroke-miterlimit="10" d="M825.1,455.7
				C842.2,327,659.9,322.4,596.6,270S498,124.2,424.1,142.2c-77.8,19-1.1,170.2-197.9,239.2c-196.8,69.4-60.8,275.7,100.7,168
				C511.8,427.1,801,637.9,825.1,455.7z"/>
			<path opacity="0.8464" fill="none" stroke="#FAA51D" stroke-width="1.7679" stroke-miterlimit="10" d="M825.4,460.1
				c17.1-126.2-160.1-131.4-222.7-182.9s-97.3-142.3-169.7-124.5c-76,18.7-1.1,166.6-193.4,234.1c-192.4,68-59.4,269.8,98.4,164.7
				C518.7,432.2,801.3,638.3,825.4,460.1z"/>
			<path opacity="0.85" fill="none" stroke="#FAA61D" stroke-width="1.75" stroke-miterlimit="10" d="M825.6,464.5
				c17-123.7-155-129.6-216.9-180.1s-96.1-138.8-166.9-121.2c-74.3,18.5-1.2,163-189,229.1C64.9,458.9,194.5,655.8,349,553.7
				C525.4,437,801.6,638.7,825.6,464.5z"/>
			<path opacity="0.8536" fill="none" stroke="#FAA71D" stroke-width="1.7321" stroke-miterlimit="10" d="M825.9,468.9
				c17-121.2-149.9-127.7-211.1-177.4S520,156.2,450.7,173.7c-72.5,18.3-1.2,159.4-184.6,224c-183.5,65.2-56.9,257.6,94,158.1
				C532.3,442.1,802,639.1,825.9,468.9z"/>
			<path opacity="0.8571" fill="none" stroke="#FBA91D" stroke-width="1.7143" stroke-miterlimit="10" d="M826.1,473.2
				c17-118.7-144.7-125.8-205.3-174.6s-93.6-131.8-161.3-114.5c-70.8,18-1.3,155.8-180.2,219c-179,63.8-55.5,251.7,91.7,154.7
				C539.2,447.2,802.3,639.5,826.1,473.2z"/>
			<path opacity="0.8607" fill="none" stroke="#FBAA1D" stroke-width="1.6964" stroke-miterlimit="10" d="M826.3,477.6
				c17-116.3-139.6-124-199.4-171.8c-59.9-47.8-92.3-128.3-158.5-111.2c-69.1,17.8-1.3,152.2-175.8,213.9
				C118,470.9,238.4,654.3,382.1,560C546.1,452.2,802.6,639.9,826.3,477.6z"/>
			<path opacity="0.8643" fill="none" stroke="#FBAB1D" stroke-width="1.6786" stroke-miterlimit="10" d="M826.6,482
				c17-113.8-134.5-122.1-193.6-169c-59.2-46.9-91-124.8-155.7-107.9c-67.3,17.6-1.4,148.6-171.4,208.9
				c-170.1,61-52.8,239.8,87.3,148.1C553,457.3,802.9,640.3,826.6,482z"/>
			<path opacity="0.8679" fill="none" stroke="#FBAC1D" stroke-width="1.6607" stroke-miterlimit="10" d="M826.8,486.4
				c17-111.3-129.3-120.3-187.8-166.2c-58.5-45.9-89.8-121.3-152.9-104.6c-65.6,17.3-1.4,145-167,203.9
				c-165.6,59.6-51.4,233.9,85.1,144.8C559.9,462.4,803.2,640.7,826.8,486.4z"/>
			<path opacity="0.8714" fill="none" stroke="#FBAE1C" stroke-width="1.6429" stroke-miterlimit="10" d="M827,490.7
				c17-108.8-124.2-118.4-182-163.4c-57.8-45-88.5-117.8-150.1-101.3c-63.9,17.1-1.5,141.3-162.6,198.8
				c-161.2,58.2-50,228,82.8,141.4C566.8,467.5,803.6,641.1,827,490.7z"/>
			<path opacity="0.875" fill="none" stroke="#FCAF1C" stroke-width="1.625" stroke-miterlimit="10" d="M827.3,495.1
				c17-106.3-119.1-116.5-176.2-160.6s-87.3-114.3-147.3-98c-62.1,16.9-1.7,137.4-158.2,193.8c-156.8,56.5-48.6,222,80.6,138.1
				C573.7,472.6,803.9,641.5,827.3,495.1z"/>
			<path opacity="0.8786" fill="none" stroke="#FCB11C" stroke-width="1.6071" stroke-miterlimit="10" d="M827.5,499.5
				c17-103.8-113.9-114.7-170.3-157.8s-86-110.8-144.5-94.7c-60.4,16.6-1.7,133.8-153.8,188.7c-152.4,55.1-47.3,216.1,78.4,134.8
				C580.6,477.7,804.3,641.9,827.5,499.5z"/>
			<path opacity="0.8821" fill="none" stroke="#FCB21C" stroke-width="1.5893" stroke-miterlimit="10" d="M827.8,503.9
				c17-101.3-108.8-112.8-164.5-155c-55.7-42.2-84.8-107.3-141.7-91.4c-58.6,16.4-1.8,130.1-149.4,183.7
				c-147.9,53.6-45.9,210.2,76.1,131.5C587.5,482.8,804.6,642.3,827.8,503.9z"/>
			<path opacity="0.8857" fill="none" stroke="#FCB31C" stroke-width="1.5714" stroke-miterlimit="10" d="M828,508.3
				c17-98.9-103.7-111-158.7-152.2c-55-41.2-83.5-103.8-138.9-88.1c-56.9,16.1-1.8,126.5-145,178.6
				c-143.5,52.2-44.5,204.2,73.9,128.1C594.4,487.9,804.9,642.7,828,508.3z"/>
			<path opacity="0.8893" fill="none" stroke="#FCB51C" stroke-width="1.5536" stroke-miterlimit="10" d="M828.2,512.6
				c17-96.4-98.5-109.1-152.9-149.4c-54.3-40.3-82.2-100.3-136.1-84.8C484,294.3,537.3,401.3,398.6,452
				c-139,50.8-43.2,198.3,71.7,124.8C601.3,493,805.2,643.1,828.2,512.6z"/>
			<path opacity="0.8929" fill="none" stroke="#FDB61C" stroke-width="1.5357" stroke-miterlimit="10" d="M828.4,517
				c17-93.9-93.4-107.3-147.1-146.6c-53.6-39.4-81-96.8-133.3-81.5c-53.4,15.6-2,119.3-136.1,168.5
				c-134.6,49.4-41.8,192.4,69.4,121.5C608.1,498,805.6,643.5,828.4,517z"/>
			<path opacity="0.8964" fill="none" stroke="#FDB71C" stroke-width="1.5179" stroke-miterlimit="10" d="M828.6,521.4
				c17-91.4-88.3-105.4-141.2-143.8s-79.7-93.3-130.5-78.2c-51.7,15.4-2,115.6-131.7,163.5c-130.1,48-40.4,186.4,67.2,118.1
				C615,503.1,805.9,643.9,828.6,521.4z"/>
			<path opacity="0.9" fill="none" stroke="#FDB91B" stroke-width="1.5" stroke-miterlimit="10" d="M828.9,525.8
				c17-88.9-83.1-103.5-135.4-141s-78.4-89.9-127.7-74.9c-49.9,15.2-2.1,112-127.3,158.5c-125.7,46.6-39,180.5,65,114.8
				C621.9,508.2,806.3,644.3,828.9,525.8z"/>
			<path opacity="0.9036" fill="none" stroke="#FDBA1B" stroke-width="1.4821" stroke-miterlimit="10" d="M829.1,530.2
				c17-86.5-78-101.7-129.6-138.3c-51.6-36.6-77.2-86.4-124.9-71.6c-48.2,14.9-2.1,108.4-122.9,153.4
				c-121.2,45.2-37.7,174.6,62.7,111.5C628.8,513.3,806.6,644.7,829.1,530.2z"/>
			<path opacity="0.9071" fill="none" stroke="#FEBB1B" stroke-width="1.4643" stroke-miterlimit="10" d="M829.3,534.5
				c17-84-72.9-99.8-123.8-135.5s-75.9-82.9-122.2-68.3c-46.4,14.7-2.2,104.8-118.5,148.4c-116.7,43.8-36.3,168.6,60.5,108.2
				C635.7,518.4,806.9,645.1,829.3,534.5z"/>
			<path opacity="0.9107" fill="none" stroke="#FEBD1B" stroke-width="1.4464" stroke-miterlimit="10" d="M829.5,538.9
				c17-81.5-67.8-98-117.9-132.7s-74.6-79.4-119.4-65c-44.7,14.4-2.3,101.1-114.1,143.3c-112.3,42.4-34.9,162.7,58.3,104.8
				C642.5,523.5,807.3,645.5,829.5,538.9z"/>
			<path opacity="0.9143" fill="none" stroke="#FEBE1B" stroke-width="1.4286" stroke-miterlimit="10" d="M829.7,543.3
				c17-79.1-62.6-96.1-112.1-129.9c-49.5-33.8-73.4-75.9-116.6-61.7c-42.9,14.2-2.3,97.5-109.7,138.3
				c-107.8,40.9-33.5,156.8,56,101.5C649.4,528.6,807.6,645.9,829.7,543.3z"/>
			<path opacity="0.9179" fill="none" stroke="#FEBF1B" stroke-width="1.4107" stroke-miterlimit="10" d="M829.8,547.7
				c17-76.6-57.5-94.2-106.3-127.1c-48.8-32.8-72.1-72.4-113.8-58.4c-41.2,13.9-2.4,93.9-105.3,133.2
				c-103.4,39.5-32.2,150.8,53.8,98.2C656.2,533.7,808,646.3,829.8,547.7z"/>
			<path opacity="0.9214" fill="none" stroke="#FEC11B" stroke-width="1.3929" stroke-miterlimit="10" d="M830,552.1
				c17-74.1-52.4-92.4-100.5-124.3s-70.8-68.9-111-55.1c-39.5,13.6-2.5,90.3-100.9,128.2c-98.9,38.1-30.8,144.9,51.6,94.9
				C663.1,538.9,808.3,646.7,830,552.1z"/>
			<path opacity="0.925" fill="none" stroke="#FFC21B" stroke-width="1.375" stroke-miterlimit="10" d="M830.2,556.5
				c17-71.7-47.2-90.5-94.7-121.5c-47.4-31-69.6-65.4-108.2-51.7c-37.7,13.4-2.5,86.6-96.5,123.1c-94.5,36.7-29.4,139,49.3,91.5
				C669.9,544,808.6,647.2,830.2,556.5z"/>
			<path opacity="0.9286" fill="none" stroke="#FFC31B" stroke-width="1.3571" stroke-miterlimit="10" d="M830.3,560.9
				c17.1-69.2-42.1-88.7-88.8-118.7c-46.7-30-68.3-62-105.4-48.4c-36,13.1-2.6,83-92.1,118.1c-90,35.3-28,133,47.1,88.2
				C676.7,549.1,809,647.6,830.3,560.9z"/>
			<path opacity="0.9321" fill="none" stroke="#FFC51A" stroke-width="1.3393" stroke-miterlimit="10" d="M830.5,565.4
				c17.1-66.8-37-86.8-83-115.9c-46.1-29.1-67-58.5-102.6-45.1c-34.2,12.8-2.6,79.4-87.7,113c-85.6,33.9-26.7,127.1,44.9,84.9
				C683.5,554.2,809.3,648,830.5,565.4z"/>
			<path opacity="0.9357" fill="none" stroke="#FFC61A" stroke-width="1.3214" stroke-miterlimit="10" d="M830.6,569.8
				c17.1-64.3-31.8-84.9-77.2-113.1c-45.4-28.2-65.7-55-99.8-41.8c-32.5,12.6-2.7,75.7-83.3,108c-81.1,32.5-25.3,121.2,42.7,81.6
				C690.3,559.3,809.7,648.4,830.6,569.8z"/>
			<path opacity="0.9393" fill="none" stroke="#FFC71A" stroke-width="1.3036" stroke-miterlimit="10" d="M830.7,574.2
				c17.2-61.9-26.7-83.1-71.4-110.3c-44.7-27.2-64.4-51.5-97-38.5c-30.7,12.3-2.8,72.1-78.8,103c-76.7,31.1-23.9,115.2,40.4,78.2
				C697.1,564.5,810,648.9,830.7,574.2z"/>
			<path opacity="0.9429" fill="none" stroke="#FFC91A" stroke-width="1.2857" stroke-miterlimit="10" d="M830.8,578.7
				c17.2-59.5-21.6-81.2-65.6-107.5s-63.2-48.1-94.2-35.2c-29,12-2.8,68.5-74.4,97.9c-72.2,29.7-22.5,109.3,38.2,74.9
				C703.9,569.6,810.3,649.3,830.8,578.7z"/>
			<path opacity="0.9464" fill="none" stroke="#FFCA1A" stroke-width="1.2679" stroke-miterlimit="10" d="M830.8,583.1
				c17.3-57-16.4-79.4-59.7-104.7c-43.3-25.4-61.9-44.6-91.4-31.9c-27.2,11.7-2.9,64.9-70,92.9c-67.8,28.3-21.2,103.4,36,71.6
				C710.6,574.8,810.6,649.8,830.8,583.1z"/>
			<path opacity="0.95" fill="none" stroke="#FFCB19" stroke-width="1.25" stroke-miterlimit="10" d="M830.8,587.6
				c17.4-54.6-11.3-77.5-53.9-101.9c-42.6-24.4-60.6-41.2-88.6-28.6c-25.5,11.4-2.9,61.3-65.6,87.8c-63.3,26.9-19.8,97.4,33.7,68.3
				C717.2,580,810.9,650.3,830.8,587.6z"/>
			<path opacity="0.9536" fill="none" stroke="#FFCD19" stroke-width="1.2321" stroke-miterlimit="10" d="M830.7,592.1
				c17.5-52.2-6.2-75.6-48.1-99.2c-41.9-23.5-59.3-37.7-85.8-25.3c-23.7,11.1-3,57.6-61.2,82.8c-58.9,25.4-18.4,91.5,31.5,64.9
				C723.8,585.2,811.1,650.8,830.7,592.1z"/>
			<path opacity="0.9571" fill="none" stroke="#FFCE19" stroke-width="1.2143" stroke-miterlimit="10" d="M830.6,596.6
				c17.6-49.8-1-73.8-42.3-96.4c-41.2-22.6-58-34.3-83-22c-22,10.8-3.1,54-56.8,77.7c-54.4,24-17,85.5,29.3,61.6
				C730.4,590.4,811.3,651.3,830.6,596.6z"/>
			<path opacity="0.9607" fill="none" stroke="#FFCF19" stroke-width="1.1964" stroke-miterlimit="10" d="M830.3,601.2
				c17.7-47.3,4.1-71.9-36.4-93.6c-40.5-21.6-56.7-30.8-80.2-18.7c-20.2,10.5-3.1,50.4-52.4,72.7c-50,22.6-15.6,79.6,27,58.3
				C736.8,595.7,811.4,651.9,830.3,601.2z"/>
			<path opacity="0.9643" fill="none" stroke="#FFD019" stroke-width="1.1786" stroke-miterlimit="10" d="M830,605.8
				c17.8-44.9,9.2-70.1-30.6-90.8c-39.8-20.7-55.4-27.4-77.4-15.4c-18.5,10.1-3.2,46.8-48,67.6c-45.5,21.2-14.2,73.7,24.8,55
				C743.1,601,811.4,652.5,830,605.8z"/>
			<path opacity="0.9679" fill="none" stroke="#FFD219" stroke-width="1.1607" stroke-miterlimit="10" d="M829.5,609.9
				c18-42.5,14.4-68.2-24.8-88c-39.2-19.8-54.1-24-74.6-12.1c-16.7,9.7-3.3,43.1-43.6,62.6c-41.1,19.8-12.8,67.7,22.6,51.6
				C749.3,605.8,811.4,652.6,829.5,609.9z"/>
			<path opacity="0.9714" fill="none" stroke="#FFD318" stroke-width="1.1429" stroke-miterlimit="10" d="M828.8,614
				c18.2-40.1,19.5-66.3-19-85.2C771.3,510,757,508.2,738,520c-15,9.4-3.3,39.5-39.2,57.6c-36.7,18.4-11.4,61.8,20.3,48.3
				C755.3,610.6,811.2,652.7,828.8,614z"/>
			<path opacity="0.975" fill="none" stroke="#FFD418" stroke-width="1.125" stroke-miterlimit="10" d="M827.9,618.2
				c18.5-37.6,24.6-64.5-13.2-82.4c-37.8-17.9-51.5-17.3-69-5.5c-13.3,9-3.4,35.9-34.8,52.5c-32.2,17-10,55.8,18.1,45
				C761.2,615.4,810.8,653,827.9,618.2z"/>
			<path opacity="0.9786" fill="none" stroke="#FFD618" stroke-width="1.1071" stroke-miterlimit="10" d="M826.8,622.4
				c18.8-35.2,29.7-62.6-7.3-79.6c-37.1-17-50.2-13.9-66.2-2.2c-11.6,8.5-3.5,32.3-30.4,47.5c-27.8,15.6-8.6,49.9,15.9,41.7
				C766.8,620.4,810.3,653.3,826.8,622.4z"/>
			<path opacity="0.9821" fill="none" stroke="#FFD718" stroke-width="1.0893" stroke-miterlimit="10" d="M825.5,626.8
				c19.1-32.7,34.9-60.8-1.5-76.8s-49-10.6-63.4,1.1c-9.9,8.1-3.6,28.7-26,42.4c-23.3,14.3-7.1,43.9,13.6,38.3
				C772.3,625.5,809.7,653.8,825.5,626.8z"/>
			<path opacity="0.9857" fill="none" stroke="#FFD818" stroke-width="1.0714" stroke-miterlimit="10" d="M824,631.3
				c19.6-30.2,40-58.9,4.3-74c-35.7-15.1-47.7-7.4-60.6,4.4c-8.2,7.5-3.6,25.2-21.5,37.4c-18.9,12.9-5.6,38,11.4,35
				C777.6,630.6,808.9,654.4,824,631.3z"/>
			<path opacity="0.9893" fill="none" stroke="#FFDA18" stroke-width="1.0536" stroke-miterlimit="10" d="M822.3,635.5
				c20.2-27.5,45.1-57.1,10.1-71.2c-35-14.2-46.6-4.2-57.8,7.7c-6.6,7-3.7,21.6-17.1,32.3c-14.5,11.6-3.9,29.4,9.2,31.7
				C782.6,638.9,808.1,654.8,822.3,635.5z"/>
			<path opacity="0.9929" fill="none" stroke="#FFDB17" stroke-width="1.0357" stroke-miterlimit="10" d="M820.5,640.6
				c21-24.7,50.3-55.2,15.9-68.4c-34.3-13.2-45.6-1.1-55,11.1c-5,6.4-3.8,18.1-12.7,27.3c-10,10.3-2.4,26.4,6.9,28.4
				C788.2,641.5,807.2,656.2,820.5,640.6z"/>
			<path opacity="0.9964" fill="none" stroke="#FFDC17" stroke-width="1.0179" stroke-miterlimit="10" d="M818.6,645.2
				c22-21.5,55.4-53.3,21.8-65.6s-44.8,1.9-52.2,14.4c-3.5,5.9-3.7,14.7-8.3,22.2c-5.5,9.1-0.8,21,4.7,25
				C793.2,647.5,806.2,657.3,818.6,645.2z"/>
			<path fill="none" stroke="#FFDE17" stroke-miterlimit="10" d="M794.7,604.6c-10,24.9-1.4,63,21.8,45.2s60.5-51.5,27.6-62.8
				C811.2,575.6,799.8,591.9,794.7,604.6z"/>
		</g>
	</g>
</g>
</svg>
