<svg xmlns="http://www.w3.org/2000/svg" viewBox="0 0 129.76 129.76"><defs><style>.cls-1{fill:#012d20;fill-rule:evenodd;}</style></defs><title>Asset 1</title><g id="Layer_2" data-name="Layer 2"><g id="Layer_1-2" data-name="Layer 1"><path class="cls-1" d="M72.4,57.36a5,5,0,0,0,7.14,7.14,5,5,0,1,0-7.14-7.14Zm0,15a5,5,0,0,0-7.14,7.14A5,5,0,1,0,72.4,72.4ZM47.28,96.29l5.5-5.49c5-3.93,9,.72,14.16,5.91,5.57,5.58,10.46,9.62,4.85,15.23l-3.36,3.36c-5.61,5.61-9.66.73-15.23-4.85-5.19-5.19-9.85-9.16-5.92-14.16Zm-.57,20.65c-10-10-18.17-18.17-8.44-27.9l7.26-7.25c9.73-9.73,17.86-1.6,27.9,8.43s18.17,18.17,8.44,27.91l-7.26,7.25c-9.73,9.73-17.86,1.6-27.9-8.44ZM57.36,72.4a5,5,0,0,0-7.14-7.14,5,5,0,1,0,7.14,7.14ZM33.47,47.28c-5-3.93-9,.73-14.17,5.92-5.57,5.57-10.45,9.62-4.84,15.23l3.36,3.36c5.61,5.61,9.65.72,15.23-4.85,5.19-5.19,9.84-9.16,5.91-14.16l-5.49-5.5Zm-20.65-.57c-10,10-18.17,18.17-8.44,27.9l7.25,7.26c9.73,9.73,17.87,1.6,27.9-8.44S57.7,55.26,48,45.53l-7.25-7.26c-9.74-9.73-17.87-1.6-27.9,8.44ZM57.36,57.36a5,5,0,1,1,7.1,0,5,5,0,0,1-7.1,0ZM82.48,33.47,77,39c-5,3.93-9-.72-14.16-5.91C57.25,27.47,52.36,23.43,58,17.82l3.36-3.36c5.61-5.61,9.66-.73,15.23,4.84,5.19,5.2,9.85,9.16,5.92,14.17Zm.57-20.66c10,10,18.17,18.17,8.43,27.91L84.23,48c-9.73,9.73-17.86,1.6-27.9-8.44s-18.17-18.16-8.44-27.9l7.26-7.25c9.73-9.73,17.86-1.6,27.9,8.43ZM96.29,82.48c5,3.93,9-.73,14.16-5.92C116,71,120.91,66.94,115.3,61.33L111.94,58c-5.61-5.61-9.65-.72-15.23,4.85C91.52,68,86.87,72,90.8,77l5.49,5.5Zm20.65.57c-10,10-18.17,18.17-27.9,8.43l-7.25-7.25c-9.73-9.73-1.6-17.86,8.43-27.9s18.17-18.17,27.91-8.44l7.25,7.26C135.11,64.88,127,73,116.94,83.05Z"/></g></g></svg>