<svg xmlns="http://www.w3.org/2000/svg" viewBox="0 0 309.66 46.67"><defs><style>.cls-1{fill:#fafaf6;fill-rule:evenodd;}</style></defs><title>Asset 1</title><g id="Layer_2" data-name="Layer 2"><g id="Layer_1-2" data-name="Layer 1"><path class="cls-1" d="M24.15,0C10.81,0,0,0,0,12.94v9.63C0,35.51,10.81,35.51,24.15,35.51s24.14,0,24.14-12.94V12.94C48.29,0,37.49,0,24.15,0ZM290.68,8.62h19V0H290.73c-12.58,0-18.11,0-18.11,10.91V24.6c0,10.91,5.53,10.91,18.11,10.91h18.93V26.89h-19c-6.59,0-7.25.05-7.25-6.29V14.91c0-6.34.66-6.29,7.25-6.29ZM271.75,0H258.61l-13,11.67L232.53,0H219.39L239,17.55l1.16,1V35.51H251V18.57l1.16-1L271.75,0ZM226.28,26.94v8.57H212c-12.58,0-22.78,0-22.78-10.91V0h10.81V20.39c0,6.34,5.32,6.55,11.92,6.55Zm-38.94,8.57L168,0H154.32L135,35.51h12L161.17,9.44l14.15,26.07ZM97.25,8.62V0h42.66V8.62Zm15.93,26.89H124V13.44h-10.8V35.51Zm-11.05,0L82.81,0H69.11L49.78,35.51h12L76,9.44,90.11,35.51ZM37.49,14.1v7.31c-.71,5.93-6.44,5.48-13.34,5.48-7.41,0-13.34.55-13.34-6.9V15.52c0-7.45,5.93-6.9,13.34-6.9,6.9,0,12.63-.45,13.34,5.48Zm-.81,32.57a4.75,4.75,0,0,0,0-9.49,4.75,4.75,0,1,0,0,9.49Z"/></g></g></svg>
