<svg xmlns="http://www.w3.org/2000/svg" viewBox="0 0 72.38 69.95"><defs><style>.cls-1{fill:#012d20;fill-rule:evenodd;}</style></defs><title>Asset 2</title><g id="Layer_2" data-name="Layer 2"><g id="Layer_1-2" data-name="Layer 1"><path class="cls-1" d="M55,70a7.11,7.11,0,0,0,0-14.22A7.11,7.11,0,1,0,55,70Zm1.22-48.81v11c-1.07,8.89-9.66,8.21-20,8.21-11.1,0-20,.83-20-10.34V23.27c0-11.18,8.89-10.34,20-10.34,10.34,0,18.93-.69,20,8.21ZM36.19,0C16.2,0,0,0,0,19.39V33.84C0,53.22,16.2,53.22,36.19,53.22s36.19,0,36.19-19.38V19.39C72.38,0,56.19,0,36.19,0Z"/></g></g></svg>